<svg xmlns="http://www.w3.org/2000/svg" width="181" height="43" viewBox="0 0 181 43" fill="none">
    <path d="M23.7558 14.2092C20.0322 14.2092 17.0144 17.227 17.0144 20.9506C17.0144 24.6734 20.0322 27.6919 23.7558 27.6919C27.479 27.6919 30.4971 24.6734 30.4971 20.9506C30.4971 17.227 27.479 14.2092 23.7558 14.2092ZM23.6508 37.0091C22.2141 37.0091 21.0489 38.1739 21.0489 39.611C21.0489 41.0473 22.2141 42.2125 23.6508 42.2125C25.0879 42.2125 26.2523 41.0473 26.2523 39.611C26.2523 38.1739 25.0879 37.0091 23.6508 37.0091ZM39.8697 32.2693C41.3071 32.2693 42.4719 31.1049 42.4719 29.6678C42.4719 28.2307 41.3071 27.0659 39.8697 27.0659C38.4333 27.0659 37.2685 28.2307 37.2685 29.6678C37.2685 31.1049 38.4333 32.2693 39.8697 32.2693ZM36.5283 11.3339C36.5283 12.7706 37.6927 13.9354 39.1298 13.9354C40.5665 13.9354 41.7312 12.7706 41.7312 11.3339C41.7312 9.8968 40.5665 8.732 39.1298 8.732C37.6927 8.732 36.5283 9.8968 36.5283 11.3339ZM23.4701 5.2037C24.9068 5.2037 26.0716 4.0389 26.0716 2.6022C26.0716 1.1655 24.9068 0 23.4701 0C22.033 0 20.8682 1.1655 20.8682 2.6022C20.8682 4.0389 22.033 5.2037 23.4701 5.2037ZM10.1711 12.06C10.1711 10.6229 9.0063 9.4582 7.5692 9.4582C6.1325 9.4582 4.9674 10.6229 4.9674 12.06C4.9674 13.4971 6.1325 14.6615 7.5692 14.6615C9.0063 14.6615 10.1711 13.4971 10.1711 12.06ZM2.2349 18.7513C1.0008 18.7513 0 19.752 0 20.9858C0 22.2203 1.0008 23.2203 2.2349 23.2203C3.469 23.2203 4.4698 22.2203 4.4698 20.9858C4.4698 19.752 3.469 18.7513 2.2349 18.7513ZM12.9777 4.7517C14.118 4.7517 15.0423 3.8274 15.0423 2.6872C15.0423 1.5469 14.118 0.623 12.9777 0.623C11.8378 0.623 10.9139 1.5469 10.9139 2.6872C10.9139 3.8274 11.8378 4.7517 12.9777 4.7517ZM34.2378 4.8731C35.4437 4.8731 36.4203 3.8961 36.4203 2.6912C36.4203 1.4857 35.4437 0.5087 34.2378 0.5087C33.0329 0.5087 32.056 1.4857 32.056 2.6912C32.056 3.8961 33.0329 4.8731 34.2378 4.8731ZM46.8255 21.2058C46.8255 20.0248 45.8681 19.0678 44.6874 19.0678C43.5067 19.0678 42.5494 20.0248 42.5494 21.2058C42.5494 22.3865 43.5067 23.3439 44.6874 23.3439C45.8681 23.3439 46.8255 22.3865 46.8255 21.2058ZM34.2307 37.3694C33.0849 37.3694 32.1561 38.2982 32.1561 39.444C32.1561 40.5898 33.0849 41.5186 34.2307 41.5186C35.3765 41.5186 36.3053 40.5898 36.3053 39.444C36.3053 38.2982 35.3765 37.3694 34.2307 37.3694ZM12.9287 37.2978C11.7685 37.2978 10.8286 38.2381 10.8286 39.398C10.8286 40.5579 11.7685 41.4989 12.9287 41.4989C14.0887 41.4989 15.0289 40.5579 15.0289 39.398C15.0289 38.2381 14.0887 37.2978 12.9287 37.2978ZM10.1915 30.3568C10.1915 28.9201 9.0263 27.7554 7.59 27.7554C6.1529 27.7554 4.9885 28.9201 4.9885 30.3568C4.9885 31.7943 6.1529 32.9587 7.59 32.9587C9.0263 32.9587 10.1915 31.7943 10.1915 30.3568ZM17.043 29.1134C15.2805 29.1134 13.8519 30.5424 13.8519 32.3049C13.8519 34.0674 15.2805 35.4963 17.043 35.4963C18.8059 35.4963 20.2341 34.0674 20.2341 32.3049C20.2341 30.5424 18.8059 29.1134 17.043 29.1134ZM10.5844 24.2552C12.3473 24.2552 13.7762 22.8266 13.7762 21.0641C13.7762 19.3016 12.3473 17.8734 10.5844 17.8734C8.8226 17.8734 7.3933 19.3016 7.3933 21.0641C7.3933 22.8266 8.8226 24.2552 10.5844 24.2552ZM17.04 6.7666C15.2775 6.7666 13.8482 8.1955 13.8482 9.9576C13.8482 11.7202 15.2775 13.1491 17.04 13.1491C18.8029 13.1491 20.2311 11.7202 20.2311 9.9576C20.2311 8.1955 18.8029 6.7666 17.04 6.7666ZM29.9999 13.0853C31.7628 13.0853 33.191 11.6563 33.191 9.8938C33.191 8.1313 31.7628 6.7024 29.9999 6.7024C28.237 6.7024 26.8085 8.1313 26.8085 9.8938C26.8085 11.6563 28.237 13.0853 29.9999 13.0853ZM39.6697 21.1817C39.6697 19.4192 38.2415 17.9906 36.4789 17.9906C34.7161 17.9906 33.2871 19.4192 33.2871 21.1817C33.2871 22.9439 34.7161 24.3728 36.4789 24.3728C38.2415 24.3728 39.6697 22.9439 39.6697 21.1817ZM29.6582 29.2477C27.8957 29.2477 26.4667 30.6767 26.4667 32.4388C26.4667 34.2013 27.8957 35.6303 29.6582 35.6303C31.4207 35.6303 32.8493 34.2013 32.8493 32.4388C32.8493 30.6767 31.4207 29.2477 29.6582 29.2477Z"
          fill="#373435"/>
    <path d="M59.7783 10.6124V24.0521C59.7783 25.131 61.4645 25.0862 61.4645 24.0521V10.6124C61.4645 10.0586 61.0384 9.7778 60.6149 9.7778C60.1956 9.7778 59.7783 10.0533 59.7783 10.6124Z"
          fill="#373435"/>
    <path d="M66.2959 15.3094V13.9161C66.2959 12.8375 64.6782 12.8595 64.6782 13.8937V23.9626C64.6782 24.4568 65.0148 24.7491 65.5321 24.7491C66.0489 24.7491 66.3411 24.4568 66.3411 23.9626V18.748C66.3411 16.2985 68.3864 14.5004 70.5666 14.5004C72.387 14.5004 74.0501 15.9386 74.0501 18.0064V23.9626C74.0501 24.4568 74.3868 24.7491 74.8818 24.7491C75.3986 24.7491 75.6905 24.4568 75.6905 23.9626V18.0064C75.6905 14.7705 73.1958 12.9723 70.5888 12.9723C68.8358 12.9723 67.1051 13.6685 66.2959 15.3094Z"
          fill="#373435"/>
    <path d="M79.8264 10.5672V13.1746H78.343C77.3539 13.1746 77.2864 14.5905 78.343 14.5905H79.8264V20.6587C79.8264 22.7933 80.478 24.7712 83.1753 24.7712C83.7822 24.7712 84.3438 24.7042 84.9058 24.3892C85.9172 23.8272 85.1755 22.5014 84.2314 23.0409C84.0067 23.1757 83.5121 23.2879 83.1753 23.2879C81.6468 23.2879 81.4445 21.9394 81.4445 20.6587V14.5905H83.8944C84.9058 14.5905 84.9058 13.1746 83.8944 13.1746H81.4445V10.5672C81.4445 10.0366 81.0357 9.76652 80.6292 9.76672C80.2265 9.76672 79.8264 10.031 79.8264 10.5672Z"
          fill="#373435"/>
    <path d="M91.1084 14.7026C91.8727 14.4781 92.7944 14.4781 93.536 14.6804H93.5131C95.2661 15.1298 96.4352 16.5905 96.5923 18.5014H88.1191C88.2541 16.6806 89.3105 15.1745 91.1084 14.7026ZM90.6138 13.2193C86.4337 14.3882 85.3771 19.5576 87.8049 22.7485C88.8612 24.0744 90.6138 24.7491 92.3668 24.7491C93.8279 24.7712 95.3339 24.3667 96.3674 23.4004C97.244 22.5014 96.0753 21.58 95.289 22.2991C94.4122 22.9735 93.3333 23.2431 92.2998 23.2431C90.0522 23.2431 88.4788 21.7146 88.1867 19.8718H97.0642C97.9856 19.8718 98.2105 19.3326 98.1658 18.8381V18.8607C98.1204 15.9837 96.5476 13.9161 94.0081 13.2193H93.9854C93.4242 13.0707 92.8344 12.9917 92.251 12.9917C91.6888 12.9917 91.1321 13.0651 90.6138 13.2193Z"
          fill="#373435"/>
    <path d="M102.571 15.0397V13.9161C102.571 12.8375 100.976 12.927 100.976 13.9161V23.8725C100.976 24.3445 101.312 24.6591 101.807 24.6591C102.234 24.6591 102.616 24.3445 102.616 23.8725V18.7933C102.616 16.5235 103.605 14.6804 105.92 14.6804C106.437 14.6804 106.774 14.4107 106.774 13.9161C106.774 13.3993 106.437 13.1292 105.92 13.1292C104.639 13.1292 103.29 13.5343 102.571 15.0397Z"
          fill="#373435"/>
    <path d="M116.371 15.3094V13.9161C116.371 12.8375 114.752 12.8595 114.752 13.8937V23.9626C114.752 24.4568 115.09 24.7491 115.607 24.7491C116.123 24.7491 116.416 24.4568 116.416 23.9626V18.748C116.416 16.2985 118.461 14.5004 120.641 14.5004C122.461 14.5004 124.124 15.9386 124.124 18.0064V23.9626C124.124 24.4568 124.462 24.7491 124.956 24.7491C125.473 24.7491 125.765 24.4568 125.765 23.9626V18.0064C125.765 14.7705 123.27 12.9723 120.664 12.9723C118.91 12.9723 117.18 13.6685 116.371 15.3094Z"
          fill="#373435"/>
    <path d="M131.833 22.4789C130.62 21.4675 130.148 20.1191 130.193 18.6581C130.215 18.0738 130.328 17.4671 130.53 16.995C131.159 15.4217 132.777 14.5678 134.373 14.5905C136.396 14.6804 137.947 15.8266 137.947 18.0513V19.8268C137.834 22.0742 136.216 23.333 134.148 23.333C133.317 23.2656 132.508 22.9955 131.833 22.4789ZM131.991 13.4663L132.013 13.4442C129.856 14.2755 128.597 16.366 128.552 18.6358C128.485 20.8387 129.361 22.7485 131.069 23.9173C132.013 24.5916 133.227 24.8836 134.306 24.8836C135.632 24.8836 137.295 24.1418 137.947 22.8382V23.9173C137.947 24.4119 138.239 24.7265 138.756 24.7265C139.25 24.7265 139.587 24.4119 139.587 23.9173V13.9388C139.587 13.4663 139.25 13.1292 138.756 13.1292C138.239 13.1292 137.947 13.4663 137.947 13.9388V14.7927C137.138 13.4663 135.677 13.0618 134.396 13.0397C134.326 13.0377 134.257 13.0368 134.189 13.0368C133.41 13.0368 132.672 13.1566 131.991 13.4663Z"
          fill="#373435"/>
    <path d="M143.971 10.5672V13.1746H142.487C141.498 13.1746 141.431 14.5905 142.487 14.5905H143.971V20.6587C143.971 22.7933 144.622 24.7712 147.319 24.7712C147.926 24.7712 148.488 24.7042 149.05 24.3892C150.061 23.8272 149.32 22.5014 148.376 23.0409C148.151 23.1757 147.656 23.2879 147.319 23.2879C145.791 23.2879 145.589 21.9394 145.589 20.6587V14.5905H148.039C149.05 14.5905 149.05 13.1746 148.039 13.1746H145.589V10.5672C145.589 10.0366 145.18 9.76652 144.773 9.76672C144.371 9.76672 143.971 10.031 143.971 10.5672Z"
          fill="#373435"/>
    <path d="M151.566 13.9161V24.0296C151.566 24.9961 153.208 25.0188 153.208 24.0296V13.8937C153.208 13.416 152.807 13.1797 152.401 13.1801C151.987 13.1801 151.566 13.4271 151.566 13.9161ZM151.544 10.4771V11.4886C151.544 12.5225 153.23 12.5002 153.23 11.4886V10.4771C153.23 9.96031 152.808 9.70221 152.387 9.70221C151.966 9.70221 151.544 9.96031 151.544 10.4771Z"
          fill="#373435"/>
    <path d="M158.242 21.8045C157.567 21.0182 157.253 19.9616 157.253 18.9508C157.253 16.9275 158.354 15.1745 160.242 14.6804C160.579 14.5905 161.006 14.5231 161.433 14.5231C161.861 14.5231 162.31 14.5905 162.669 14.6804C164.58 15.1745 165.681 16.9502 165.681 18.9956C165.681 19.9616 165.321 21.0405 164.692 21.8045C163.906 22.7034 162.669 23.2879 161.456 23.2879C160.22 23.2879 159.029 22.7485 158.242 21.8045ZM159.748 13.197C157.275 13.8937 155.814 15.9837 155.589 18.4783C155.522 20.1643 155.949 21.6023 156.961 22.7933C158.062 24.1195 159.658 24.8159 161.456 24.8159C163.231 24.8159 164.849 24.1195 165.951 22.7933C166.94 21.6023 167.389 20.1643 167.299 18.4783C167.097 15.9615 165.569 13.8937 163.119 13.197C162.535 13.0397 161.995 12.9944 161.456 12.9944C160.894 12.9944 160.287 13.0397 159.748 13.197Z"
          fill="#373435"/>
    <path d="M171.592 15.3094V13.9161C171.592 12.8375 169.974 12.8595 169.974 13.8937V23.9626C169.974 24.4568 170.311 24.7491 170.828 24.7491C171.345 24.7491 171.637 24.4568 171.637 23.9626V18.748C171.637 16.2985 173.683 14.5004 175.863 14.5004C177.683 14.5004 179.346 15.9386 179.346 18.0064V23.9626C179.346 24.4568 179.683 24.7491 180.178 24.7491C180.695 24.7491 180.987 24.4568 180.987 23.9626V18.0064C180.987 14.7705 178.492 12.9723 175.885 12.9723C174.132 12.9723 172.401 13.6685 171.592 15.3094Z"
          fill="#373435"/>
    <path d="M60.0703 34.5687C59.9828 34.5623 59.9132 34.5283 59.8598 34.4667C59.8063 34.4052 59.7788 34.3307 59.7788 34.2432V28.6658C59.7788 28.5719 59.8112 28.4958 59.8743 28.4375C59.9375 28.3792 60.012 28.35 60.0994 28.35H63.7675C63.8549 28.35 63.9294 28.3792 63.9894 28.4391C64.0493 28.499 64.0784 28.5751 64.0784 28.6658C64.0784 28.7533 64.0493 28.8278 63.9894 28.8893C63.9294 28.9509 63.8549 28.9816 63.7675 28.9816H60.4104V31.0707H62.9659C63.0566 31.0675 63.1327 31.0982 63.1942 31.163C63.2558 31.2278 63.2865 31.3039 63.2865 31.3914C63.2865 31.4788 63.2558 31.5517 63.1942 31.6116C63.1327 31.6715 63.0566 31.7023 62.9659 31.7023H60.4104V33.9372H63.7675C63.8549 33.9372 63.9294 33.9679 63.9894 34.0295C64.0493 34.091 64.0784 34.1655 64.0784 34.2529C64.0784 34.3436 64.0493 34.4197 63.9894 34.4813C63.9294 34.5428 63.8549 34.572 63.7675 34.5687H60.0703ZM65.2687 30.3565C65.2687 30.2626 65.2882 30.1865 65.3254 30.1282C65.3627 30.0699 65.4258 30.0407 65.5165 30.0407C65.6007 30.0407 65.6671 30.0715 65.7141 30.1314C65.761 30.1914 65.7999 30.2691 65.8323 30.363L65.8712 30.9606C65.9586 30.8181 66.0606 30.6869 66.1772 30.5687C66.2938 30.4505 66.4234 30.3484 66.5643 30.2626C66.7052 30.1768 66.8574 30.1104 67.021 30.0634C67.1845 30.0165 67.3562 29.9922 67.5376 29.9922C67.842 29.9922 68.1125 30.0505 68.3489 30.1654C68.5854 30.2804 68.7846 30.4375 68.9449 30.6383C69.1052 30.8408 69.2267 31.0756 69.3109 31.3444C69.3951 31.6132 69.4372 31.9015 69.4372 32.2092V34.2627C69.4372 34.3534 69.408 34.4278 69.3497 34.4878C69.2914 34.5477 69.217 34.5785 69.1263 34.5785C69.0388 34.5785 68.9643 34.5477 68.9012 34.4878C68.838 34.4278 68.8056 34.3534 68.8056 34.2627V32.2286C68.8056 32.0084 68.7765 31.8011 68.7165 31.6068C68.6566 31.4124 68.5692 31.2408 68.4558 31.095C68.3425 30.9493 68.2016 30.8343 68.0315 30.7501C67.8615 30.6659 67.6671 30.6237 67.4501 30.6237C67.2299 30.6237 67.0258 30.6691 66.8364 30.7614C66.6469 30.8537 66.4833 30.9768 66.3457 31.1306C66.208 31.2845 66.0995 31.4642 66.0202 31.6683C65.9408 31.8723 65.9003 32.0861 65.9003 32.3096V34.2384C65.9003 34.3323 65.8728 34.41 65.8161 34.4732C65.7594 34.5364 65.6833 34.5687 65.5894 34.5687C65.4987 34.5687 65.4226 34.5364 65.361 34.4732C65.2995 34.41 65.2687 34.3323 65.2687 34.2384V30.3565ZM70.5109 32.3145C70.5109 31.9938 70.5724 31.691 70.6939 31.4076C70.8153 31.1242 70.9805 30.878 71.1911 30.6691C71.4032 30.4602 71.6494 30.295 71.9312 30.1735C72.2129 30.0521 72.5125 29.9922 72.8316 29.9922C73.1522 29.9922 73.4518 30.0537 73.7336 30.1752C74.0138 30.2966 74.2583 30.4618 74.4672 30.6707C74.6761 30.8796 74.8413 31.1258 74.9628 31.4092C75.0842 31.6926 75.1458 31.9954 75.1458 32.3161C75.1458 32.5622 75.1101 32.7971 75.0373 33.0205C74.9644 33.2456 74.8624 33.4513 74.7328 33.6392C74.8591 33.7784 74.9514 33.9388 75.0097 34.1201C75.068 34.3015 75.0972 34.4975 75.0972 34.708C75.0972 34.9768 75.0518 35.2149 74.9611 35.4238C74.8705 35.6311 74.749 35.806 74.5968 35.9485C74.4445 36.091 74.2713 36.1995 74.0753 36.274C73.8793 36.3485 73.6769 36.3858 73.4696 36.3858C73.3919 36.3858 73.3093 36.3809 73.2219 36.3712C73.1344 36.3615 73.0453 36.3501 72.9546 36.3388C72.8639 36.3275 72.7749 36.3194 72.6858 36.3129C72.5967 36.3064 72.5109 36.3048 72.4299 36.308C72.3393 36.3145 72.2421 36.3323 72.1384 36.3615C72.0348 36.3906 71.9409 36.4376 71.8567 36.5024C71.7886 36.5607 71.7141 36.5833 71.6316 36.5704C71.549 36.5574 71.4793 36.5234 71.4243 36.4684C71.3692 36.4133 71.3384 36.3437 71.332 36.2611C71.3255 36.1785 71.3627 36.0975 71.4437 36.0165C71.5247 35.9453 71.6316 35.887 71.7627 35.8432C71.8939 35.7995 72.0186 35.7671 72.1384 35.7445C72.3295 35.7186 72.519 35.7137 72.7052 35.7299C72.8915 35.7461 73.0761 35.7542 73.2607 35.7542C73.6364 35.7542 73.9312 35.6635 74.1449 35.4805C74.3587 35.2991 74.4656 35.04 74.4656 34.7048C74.4656 34.6238 74.4607 34.5525 74.4494 34.4926C74.4381 34.4327 74.4235 34.3793 74.4073 34.3323C74.3911 34.2853 74.3717 34.2448 74.3506 34.2108C74.3296 34.1768 74.3085 34.1444 74.2858 34.1121C74.0883 34.2772 73.8664 34.4036 73.6186 34.4926C73.3725 34.5817 73.1101 34.627 72.8316 34.627C72.5141 34.627 72.2129 34.5655 71.9312 34.444C71.6494 34.3226 71.4032 34.1574 71.1927 33.9485C70.9805 33.7396 70.8153 33.495 70.6939 33.2133C70.5724 32.9315 70.5109 32.6319 70.5109 32.3145ZM71.1425 32.3112C71.1425 32.5412 71.1862 32.7582 71.2736 32.959C71.3611 33.1614 71.4809 33.3396 71.6332 33.4902C71.7854 33.6424 71.9652 33.7639 72.1708 33.8529C72.3765 33.942 72.5951 33.9857 72.8283 33.9857C73.0648 33.9857 73.285 33.942 73.4891 33.8529C73.6931 33.7639 73.8713 33.6424 74.0219 33.4902C74.1725 33.3396 74.2907 33.1614 74.3765 32.959C74.4624 32.7582 74.5045 32.5412 74.5045 32.3112C74.5045 32.0796 74.4624 31.8594 74.3765 31.6553C74.2907 31.4497 74.1725 31.2699 74.0219 31.1161C73.8713 30.9622 73.6931 30.8424 73.4891 30.7549C73.285 30.6675 73.0648 30.6237 72.8283 30.6237C72.5951 30.6237 72.3765 30.6675 72.1708 30.7549C71.9652 30.8424 71.7854 30.9622 71.6332 31.1161C71.4809 31.2699 71.3611 31.4497 71.2736 31.6553C71.1862 31.8594 71.1425 32.0796 71.1425 32.3112ZM77.1182 34.2481C77.1182 34.3388 77.0875 34.4149 77.0259 34.4764C76.9644 34.538 76.8915 34.5687 76.8073 34.5687C76.7199 34.5687 76.6454 34.538 76.5822 34.4764C76.5191 34.4149 76.4867 34.3388 76.4867 34.2481V28.6221C76.4867 28.5314 76.5191 28.4553 76.5822 28.3938C76.6454 28.3322 76.7199 28.3015 76.8073 28.3015C76.898 28.3015 76.9725 28.3322 77.0308 28.3938C77.0891 28.4553 77.1182 28.5314 77.1182 28.6221V34.2481ZM78.6729 29.0464C78.6729 28.9363 78.7102 28.844 78.7847 28.7711C78.8575 28.6982 78.9466 28.661 79.0503 28.661C79.1555 28.661 79.2462 28.6982 79.3191 28.7711C79.3936 28.844 79.4308 28.9363 79.4308 29.0464C79.4308 29.1517 79.3936 29.2407 79.3191 29.3169C79.2462 29.3914 79.1555 29.4286 79.0503 29.4286C78.9984 29.4286 78.9482 29.4173 78.9029 29.3962C78.8559 29.3752 78.8154 29.3476 78.7814 29.3136C78.7474 29.2796 78.7215 29.2391 78.7021 29.1938C78.6826 29.1484 78.6729 29.0998 78.6729 29.0464ZM79.3628 34.2481C79.3628 34.3388 79.332 34.4149 79.2705 34.4764C79.209 34.538 79.1361 34.5687 79.0519 34.5687C78.9644 34.5687 78.8899 34.538 78.8268 34.4764C78.7636 34.4149 78.7312 34.3388 78.7312 34.2481V30.3711C78.7312 30.2837 78.7636 30.2092 78.8268 30.1476C78.8899 30.0861 78.9644 30.0553 79.0519 30.0553C79.1426 30.0553 79.2171 30.0861 79.2754 30.1476C79.3337 30.2092 79.3628 30.2837 79.3628 30.3711V34.2481ZM82.0138 32.4634C81.8665 32.4116 81.7207 32.3517 81.5717 32.2853C81.4244 32.2189 81.2916 32.1379 81.1734 32.0424C81.0551 31.9468 80.958 31.8319 80.8835 31.6991C80.809 31.5663 80.7717 31.4076 80.7717 31.2229C80.7717 31.0221 80.8138 30.8456 80.8964 30.6934C80.979 30.5395 81.0908 30.4116 81.23 30.308C81.3693 30.2043 81.5312 30.1266 81.7159 30.0731C81.8989 30.0197 82.0916 29.9922 82.294 29.9922C82.4333 29.9922 82.5726 30.0035 82.7102 30.0278C82.8479 30.0521 82.9774 30.091 83.0973 30.1428C83.2187 30.1946 83.3272 30.261 83.4244 30.342C83.5216 30.4229 83.5993 30.5185 83.6576 30.6286C83.69 30.6934 83.7029 30.7565 83.6948 30.8197C83.6867 30.8829 83.6624 30.9347 83.6236 30.9735C83.5847 31.0157 83.5361 31.0432 83.4778 31.0578C83.4195 31.0723 83.3628 31.0659 83.3078 31.0367C83.1685 30.8812 83.0228 30.7695 82.8738 30.7031C82.7232 30.6367 82.545 30.6043 82.3361 30.6043C82.2195 30.6043 82.1045 30.6157 81.9912 30.6367C81.8794 30.6578 81.779 30.6918 81.6916 30.7404C81.6041 30.7889 81.5329 30.8537 81.481 30.9331C81.4292 31.0124 81.4033 31.1096 81.4033 31.2262C81.4033 31.3315 81.4292 31.4189 81.4794 31.4918C81.5296 31.5647 81.5976 31.6278 81.6851 31.6813C81.7725 31.7347 81.8746 31.7817 81.9896 31.8205C82.1045 31.8594 82.226 31.8983 82.3523 31.9371C82.5596 32.0019 82.7572 32.0715 82.9434 32.146C83.1313 32.2205 83.2948 32.3096 83.4357 32.4132C83.5766 32.5169 83.69 32.6416 83.7742 32.7857C83.8584 32.9298 83.9005 33.1031 83.9005 33.3039C83.9005 33.4918 83.86 33.6667 83.779 33.8286C83.6981 33.9922 83.5863 34.1331 83.4438 34.2529C83.3013 34.3728 83.1345 34.4667 82.9418 34.5347C82.7491 34.6027 82.5418 34.6368 82.3215 34.6368C82.1564 34.6368 81.9928 34.6206 81.8308 34.5882C81.6689 34.5558 81.5167 34.5072 81.3725 34.4424C81.2284 34.3776 81.0989 34.2934 80.9839 34.1914C80.8689 34.0894 80.775 33.9679 80.7037 33.8254C80.6551 33.7315 80.6406 33.6473 80.6584 33.5744C80.6762 33.5015 80.7134 33.4465 80.7717 33.4092C80.83 33.372 80.9013 33.359 80.9855 33.3703C81.0697 33.3817 81.1507 33.4254 81.2284 33.4999C81.3288 33.6651 81.4746 33.793 81.664 33.8853C81.8535 33.9776 82.0721 34.0246 82.3215 34.0246C82.4446 34.0246 82.5645 34.0068 82.6794 33.9728C82.7944 33.9388 82.8948 33.8902 82.9823 33.827C83.0697 33.7639 83.1394 33.6894 83.1912 33.6019C83.243 33.5145 83.2689 33.4173 83.2689 33.3088C83.2689 33.1987 83.2317 33.1015 83.1572 33.0173C83.0827 32.9331 82.9855 32.857 82.8657 32.789C82.7442 32.7209 82.6098 32.661 82.4608 32.6092C82.3118 32.5574 82.1628 32.5088 82.0138 32.4634ZM85.8244 31.0043C85.9119 30.857 86.0139 30.7193 86.1305 30.5962C86.2471 30.4715 86.3766 30.3646 86.5175 30.2756C86.6584 30.1865 86.809 30.1169 86.971 30.0667C87.1329 30.0165 87.3046 29.9922 87.486 29.9922C87.7904 29.9922 88.0657 30.0505 88.3103 30.1671C88.5548 30.2837 88.7621 30.4424 88.9338 30.6432C89.1054 30.844 89.2382 31.0788 89.3305 31.3493C89.4228 31.6197 89.4682 31.908 89.4682 32.2124V34.2529C89.4682 34.3436 89.439 34.4181 89.3791 34.478C89.3192 34.538 89.2415 34.5687 89.1475 34.5687C89.0633 34.5687 88.9904 34.538 88.9289 34.478C88.8674 34.4181 88.8366 34.3436 88.8366 34.2529V32.2124C88.8366 31.9922 88.801 31.7849 88.7297 31.5922C88.6585 31.3995 88.558 31.231 88.4285 31.0869C88.3005 30.9428 88.1451 30.8294 87.9653 30.7468C87.7872 30.6642 87.588 30.6237 87.3726 30.6237C87.1524 30.6237 86.9483 30.6691 86.7637 30.7614C86.5775 30.8537 86.4139 30.9784 86.2762 31.1339C86.137 31.2893 86.0285 31.4691 85.9507 31.6732C85.873 31.8772 85.8341 32.091 85.8341 32.3145L85.8244 32.3193V34.2481C85.8244 34.3388 85.7953 34.4149 85.7353 34.4764C85.6754 34.538 85.6009 34.5687 85.5135 34.5687C85.426 34.5687 85.3515 34.538 85.2884 34.4764C85.2252 34.4149 85.1928 34.3388 85.1928 34.2481V28.627C85.1928 28.533 85.2252 28.4553 85.2884 28.3938C85.3515 28.3322 85.426 28.3015 85.5135 28.3015C85.6009 28.3015 85.6754 28.3322 85.7353 28.3938C85.7953 28.4553 85.8244 28.533 85.8244 28.627V31.0043ZM94.1792 32.4634C94.0318 32.4116 93.886 32.3517 93.7371 32.2853C93.5897 32.2189 93.4569 32.1379 93.3387 32.0424C93.2204 31.9468 93.1233 31.8319 93.0488 31.6991C92.9743 31.5663 92.937 31.4076 92.937 31.2229C92.937 31.0221 92.9791 30.8456 93.0617 30.6934C93.1443 30.5395 93.2561 30.4116 93.3954 30.308C93.5346 30.2043 93.6966 30.1266 93.8812 30.0731C94.0642 30.0197 94.2569 29.9922 94.4593 29.9922C94.5986 29.9922 94.7379 30.0035 94.8755 30.0278C95.0132 30.0521 95.1427 30.091 95.2626 30.1428C95.384 30.1946 95.4925 30.261 95.5897 30.342C95.6869 30.4229 95.7646 30.5185 95.8229 30.6286C95.8553 30.6934 95.8683 30.7565 95.8602 30.8197C95.8521 30.8829 95.8278 30.9347 95.7889 30.9735C95.75 31.0157 95.7015 31.0432 95.6431 31.0578C95.5848 31.0723 95.5282 31.0659 95.4731 31.0367C95.3338 30.8812 95.1881 30.7695 95.0391 30.7031C94.8885 30.6367 94.7103 30.6043 94.5014 30.6043C94.3848 30.6043 94.2699 30.6157 94.1565 30.6367C94.0448 30.6578 93.9443 30.6918 93.8569 30.7404C93.7694 30.7889 93.6982 30.8537 93.6464 30.9331C93.5945 31.0124 93.5686 31.1096 93.5686 31.2262C93.5686 31.3315 93.5945 31.4189 93.6447 31.4918C93.6949 31.5647 93.763 31.6278 93.8504 31.6813C93.9379 31.7347 94.0399 31.7817 94.1549 31.8205C94.2699 31.8594 94.3913 31.8983 94.5176 31.9371C94.7249 32.0019 94.9225 32.0715 95.1087 32.146C95.2966 32.2205 95.4602 32.3096 95.601 32.4132C95.7419 32.5169 95.8553 32.6416 95.9395 32.7857C96.0237 32.9298 96.0658 33.1031 96.0658 33.3039C96.0658 33.4918 96.0253 33.6667 95.9444 33.8286C95.8634 33.9922 95.7516 34.1331 95.6091 34.2529C95.4666 34.3728 95.2998 34.4667 95.1071 34.5347C94.9144 34.6027 94.7071 34.6368 94.4869 34.6368C94.3217 34.6368 94.1581 34.6206 93.9962 34.5882C93.8342 34.5558 93.682 34.5072 93.5379 34.4424C93.3937 34.3776 93.2642 34.2934 93.1492 34.1914C93.0342 34.0894 92.9403 33.9679 92.869 33.8254C92.8204 33.7315 92.8059 33.6473 92.8237 33.5744C92.8415 33.5015 92.8787 33.4465 92.937 33.4092C92.9953 33.372 93.0666 33.359 93.1508 33.3703C93.235 33.3817 93.316 33.4254 93.3937 33.4999C93.4941 33.6651 93.6399 33.793 93.8294 33.8853C94.0188 33.9776 94.2375 34.0246 94.4869 34.0246C94.6099 34.0246 94.7298 34.0068 94.8448 33.9728C94.9597 33.9388 95.0601 33.8902 95.1476 33.827C95.235 33.7639 95.3047 33.6894 95.3565 33.6019C95.4083 33.5145 95.4342 33.4173 95.4342 33.3088C95.4342 33.1987 95.397 33.1015 95.3225 33.0173C95.248 32.9331 95.1508 32.857 95.031 32.789C94.9095 32.7209 94.7751 32.661 94.6261 32.6092C94.4771 32.5574 94.3282 32.5088 94.1792 32.4634ZM97.6399 32.2902C97.6399 32.2902 97.6367 32.2966 97.6302 32.3096C97.6302 32.3128 97.6318 32.3145 97.6335 32.3145C97.6351 32.3145 97.6351 32.3161 97.6351 32.3193C97.6351 32.3226 97.6367 32.3242 97.6399 32.3242C97.6399 32.5379 97.682 32.7452 97.7646 32.946C97.8472 33.1469 97.9606 33.3234 98.1063 33.4772C98.2521 33.6311 98.4237 33.7558 98.6213 33.8497C98.8189 33.9436 99.0327 33.9922 99.2626 33.9954C99.4732 33.9987 99.6723 33.9647 99.8602 33.895C100.048 33.8254 100.225 33.7185 100.39 33.5728C100.422 33.5469 100.458 33.521 100.495 33.495C100.532 33.4691 100.571 33.4513 100.613 33.4416C100.655 33.4319 100.699 33.4319 100.744 33.4432C100.79 33.4546 100.838 33.4837 100.89 33.529C100.961 33.5906 100.995 33.6667 100.992 33.759C100.989 33.8513 100.95 33.9355 100.876 34.01C100.681 34.206 100.446 34.3598 100.171 34.47C99.8958 34.5817 99.6108 34.6368 99.3161 34.6368C98.9986 34.6368 98.7007 34.5768 98.4205 34.457C98.1403 34.3372 97.8958 34.1736 97.6869 33.9663C97.478 33.7574 97.3128 33.5145 97.1913 33.2359C97.0699 32.9574 97.0083 32.6594 97.0083 32.3404L97.0181 32.3112C97.0148 32.3112 97.0132 32.308 97.0132 32.3015C97.0132 32.2983 97.0116 32.2966 97.0083 32.2966C97.0083 31.976 97.0699 31.6764 97.1913 31.3978C97.3128 31.1193 97.478 30.8748 97.6869 30.6659C97.8958 30.4569 98.1403 30.2918 98.4205 30.1719C98.7007 30.0521 98.9986 29.9922 99.3161 29.9922C99.614 29.9922 99.9007 30.044 100.174 30.1476C100.448 30.2513 100.681 30.4003 100.876 30.5946C100.95 30.6691 100.989 30.7533 100.992 30.8472C100.995 30.9412 100.961 31.0189 100.89 31.0804C100.838 31.1258 100.79 31.1533 100.744 31.163C100.699 31.1727 100.655 31.1727 100.613 31.163C100.571 31.1533 100.532 31.1355 100.495 31.1112C100.458 31.0869 100.422 31.0626 100.39 31.0367C100.228 30.891 100.053 30.7841 99.8634 30.7177C99.674 30.6513 99.4732 30.6205 99.2626 30.6237C99.0359 30.627 98.8237 30.674 98.6262 30.7663C98.4286 30.8586 98.2569 30.9817 98.1112 31.1355C97.9654 31.2893 97.8505 31.4659 97.7662 31.6651C97.682 31.8643 97.6399 32.0732 97.6399 32.2902ZM102.945 31.0043C103.033 30.857 103.135 30.7193 103.251 30.5962C103.368 30.4715 103.498 30.3646 103.638 30.2756C103.779 30.1865 103.93 30.1169 104.092 30.0667C104.254 30.0165 104.425 29.9922 104.607 29.9922C104.911 29.9922 105.187 30.0505 105.431 30.1671C105.676 30.2837 105.883 30.4424 106.055 30.6432C106.226 30.844 106.359 31.0788 106.451 31.3493C106.544 31.6197 106.589 31.908 106.589 32.2124V34.2529C106.589 34.3436 106.56 34.4181 106.5 34.478C106.44 34.538 106.362 34.5687 106.268 34.5687C106.184 34.5687 106.111 34.538 106.05 34.478C105.988 34.4181 105.957 34.3436 105.957 34.2529V32.2124C105.957 31.9922 105.922 31.7849 105.851 31.5922C105.779 31.3995 105.679 31.231 105.549 31.0869C105.421 30.9428 105.266 30.8294 105.086 30.7468C104.908 30.6642 104.709 30.6237 104.493 30.6237C104.273 30.6237 104.069 30.6691 103.885 30.7614C103.698 30.8537 103.535 30.9784 103.397 31.1339C103.258 31.2893 103.149 31.4691 103.072 31.6732C102.994 31.8772 102.955 32.091 102.955 32.3145L102.945 32.3193V34.2481C102.945 34.3388 102.916 34.4149 102.856 34.4764C102.796 34.538 102.722 34.5687 102.634 34.5687C102.547 34.5687 102.472 34.538 102.409 34.4764C102.346 34.4149 102.314 34.3388 102.314 34.2481V28.627C102.314 28.533 102.346 28.4553 102.409 28.3938C102.472 28.3322 102.547 28.3015 102.634 28.3015C102.722 28.3015 102.796 28.3322 102.856 28.3938C102.916 28.4553 102.945 28.533 102.945 28.627V31.0043ZM108.338 32.3145C108.338 32.5444 108.382 32.7598 108.469 32.9622C108.557 33.1647 108.677 33.3428 108.829 33.4967C108.981 33.6505 109.161 33.772 109.366 33.861C109.572 33.9501 109.791 33.9954 110.024 33.9954C110.26 33.9954 110.481 33.9501 110.685 33.861C110.889 33.772 111.067 33.6505 111.217 33.4967C111.368 33.3428 111.486 33.1647 111.572 32.9622C111.658 32.7598 111.7 32.5444 111.7 32.3145C111.7 32.0813 111.658 31.861 111.572 31.6553C111.486 31.4497 111.368 31.2699 111.217 31.1161C111.067 30.9622 110.889 30.8424 110.685 30.7549C110.481 30.6675 110.26 30.6237 110.024 30.6237C109.791 30.6237 109.572 30.6675 109.366 30.7549C109.161 30.8424 108.981 30.9622 108.829 31.1161C108.677 31.2699 108.557 31.4497 108.469 31.6553C108.382 31.861 108.338 32.0813 108.338 32.3145ZM107.706 32.3161C107.706 31.9954 107.768 31.6942 107.889 31.4092C108.011 31.1258 108.176 30.8796 108.387 30.6707C108.599 30.4618 108.845 30.2966 109.127 30.1752C109.409 30.0537 109.708 29.9922 110.027 29.9922C110.348 29.9922 110.647 30.0537 110.929 30.1752C111.209 30.2966 111.454 30.4618 111.663 30.6707C111.872 30.8796 112.037 31.1258 112.158 31.4092C112.28 31.6942 112.341 31.9954 112.341 32.3161C112.341 32.6351 112.28 32.9347 112.158 33.2165C112.037 33.4983 111.872 33.7444 111.663 33.9566C111.454 34.1671 111.209 34.3323 110.929 34.4538C110.647 34.5752 110.348 34.6368 110.027 34.6368C109.708 34.6368 109.409 34.5752 109.127 34.4538C108.845 34.3323 108.599 34.1671 108.387 33.9566C108.176 33.7444 108.011 33.4983 107.889 33.2165C107.768 32.9347 107.706 32.6351 107.706 32.3161ZM113.833 32.3145C113.833 32.5444 113.877 32.7598 113.964 32.9622C114.052 33.1647 114.171 33.3428 114.324 33.4967C114.476 33.6505 114.656 33.772 114.861 33.861C115.067 33.9501 115.286 33.9954 115.519 33.9954C115.755 33.9954 115.975 33.9501 116.179 33.861C116.384 33.772 116.562 33.6505 116.712 33.4967C116.863 33.3428 116.981 33.1647 117.067 32.9622C117.153 32.7598 117.195 32.5444 117.195 32.3145C117.195 32.0813 117.153 31.861 117.067 31.6553C116.981 31.4497 116.863 31.2699 116.712 31.1161C116.562 30.9622 116.384 30.8424 116.179 30.7549C115.975 30.6675 115.755 30.6237 115.519 30.6237C115.286 30.6237 115.067 30.6675 114.861 30.7549C114.656 30.8424 114.476 30.9622 114.324 31.1161C114.171 31.2699 114.052 31.4497 113.964 31.6553C113.877 31.861 113.833 32.0813 113.833 32.3145ZM113.201 32.3161C113.201 31.9954 113.263 31.6942 113.384 31.4092C113.506 31.1258 113.671 30.8796 113.881 30.6707C114.094 30.4618 114.34 30.2966 114.622 30.1752C114.903 30.0537 115.203 29.9922 115.522 29.9922C115.843 29.9922 116.142 30.0537 116.424 30.1752C116.704 30.2966 116.949 30.4618 117.158 30.6707C117.367 30.8796 117.532 31.1258 117.653 31.4092C117.775 31.6942 117.836 31.9954 117.836 32.3161C117.836 32.6351 117.775 32.9347 117.653 33.2165C117.532 33.4983 117.367 33.7444 117.158 33.9566C116.949 34.1671 116.704 34.3323 116.424 34.4538C116.142 34.5752 115.843 34.6368 115.522 34.6368C115.203 34.6368 114.903 34.5752 114.622 34.4538C114.34 34.3323 114.094 34.1671 113.881 33.9566C113.671 33.7444 113.506 33.4983 113.384 33.2165C113.263 32.9347 113.201 32.6351 113.201 32.3161ZM119.697 34.2481C119.697 34.3388 119.666 34.4149 119.605 34.4764C119.543 34.538 119.47 34.5687 119.386 34.5687C119.299 34.5687 119.224 34.538 119.161 34.4764C119.098 34.4149 119.065 34.3388 119.065 34.2481V28.6221C119.065 28.5314 119.098 28.4553 119.161 28.3938C119.224 28.3322 119.299 28.3015 119.386 28.3015C119.477 28.3015 119.551 28.3322 119.609 28.3938C119.668 28.4553 119.697 28.5314 119.697 28.6221V34.2481Z"
          fill="#373435"/>
</svg>
