<svg width="356" height="199" viewBox="0 0 356 199" fill="none" xmlns="http://www.w3.org/2000/svg">
<path d="M202.554 181.232V184.786C202.554 186.751 200.965 188.339 199 188.339H156.357C154.392 188.339 152.804 186.751 152.804 184.786V181.232H0V188.339C0 188.339 0 199 10.6607 199H344.696C355.357 199 355.357 188.339 355.357 188.339V181.232H202.554Z" fill="black"/>
<path d="M302.054 0H53.3035C47.4117 0 42.6428 4.77245 42.6428 10.6607V14.2143V159.911C42.6428 165.799 47.4117 170.571 53.3035 170.571H56.8571H298.5H302.054C307.938 170.571 312.714 165.799 312.714 159.911V14.2143V10.6607C312.714 4.77245 307.942 0 302.054 0ZM298.5 156.357H56.8571V14.2143H298.5V156.357Z" fill="black"/>
<path d="M241.643 83.0944C241.505 67.3402 235.562 51.586 223.401 39.5631C211.655 27.8166 196.039 21.3214 179.455 21.3214C162.872 21.3214 147.256 27.8166 135.509 39.5631C123.487 51.586 117.406 67.3402 117.268 83.0944C117.268 83.2326 117.268 83.3707 117.268 83.5089C117.268 83.6471 117.268 83.7853 117.268 83.9235C117.406 99.6777 123.348 115.432 135.509 127.455C147.256 139.201 162.872 145.696 179.455 145.696C196.039 145.696 211.655 139.201 223.401 127.455C235.424 115.432 241.505 99.6777 241.643 83.9235C241.643 83.7853 241.643 83.6471 241.643 83.5089C241.643 83.3707 241.643 83.2326 241.643 83.0944ZM220.775 120.13C217.044 116.814 213.037 114.05 208.753 111.701C210.687 104.238 211.931 95.8082 212.207 86.9638H234.595C233.904 98.8485 229.205 110.595 220.775 120.13ZM124.316 86.9638H146.703C146.98 95.9464 148.223 104.238 150.158 111.701C145.874 113.912 141.866 116.814 138.135 120.13C129.705 110.595 125.007 98.8485 124.316 86.9638ZM138.135 46.8874C141.866 50.2041 145.874 52.968 150.158 55.3173C148.085 62.7798 146.98 71.0714 146.703 80.0541H124.316C125.007 68.1694 129.705 56.4228 138.135 46.8874ZM176 55.5937C170.058 55.1791 164.116 53.9353 158.45 51.586C162.596 39.4249 168.814 30.8569 176 28.7839V55.5937ZM176 62.5034V80.0541H153.613C153.889 72.3152 154.857 64.8527 156.515 58.2194C162.734 60.7069 169.367 62.0888 176 62.5034ZM176 86.9638V104.514C169.367 104.929 162.734 106.311 156.515 108.799C154.857 102.165 153.889 94.7027 153.613 86.9638H176ZM176 111.424V138.234C168.814 136.161 162.596 127.455 158.45 115.432C164.116 113.083 170.058 111.839 176 111.424ZM182.91 111.424C188.853 111.839 194.795 113.083 200.461 115.432C196.315 127.593 190.096 136.161 182.91 138.234V111.424ZM182.91 104.514V86.9638H205.298C205.021 94.7027 204.054 102.165 202.396 108.799C196.177 106.311 189.544 104.929 182.91 104.514ZM182.91 80.0541V62.5034C189.544 62.0888 196.177 60.7069 202.396 58.2194C204.054 64.8527 205.021 72.3152 205.298 80.0541H182.91ZM182.91 55.5937V28.7839C190.096 30.8569 196.315 39.5631 200.461 51.586C194.795 53.9353 188.853 55.1791 182.91 55.5937ZM197.421 31.2714C204.192 33.6207 210.411 37.2138 215.939 42.0506C213.037 44.5381 209.996 46.7492 206.818 48.5457C204.33 41.636 201.152 35.6937 197.421 31.2714ZM152.231 48.5457C149.053 46.7492 145.874 44.5381 143.11 42.0506C148.638 37.2138 154.857 33.6207 161.628 31.2714C157.759 35.6937 154.58 41.636 152.231 48.5457ZM152.231 118.472C154.719 125.382 157.897 131.186 161.49 135.746C154.719 133.397 148.5 129.804 142.972 124.967C145.874 122.48 148.914 120.269 152.231 118.472ZM206.68 118.472C209.858 120.269 213.037 122.48 215.8 124.967C210.273 129.804 204.054 133.397 197.282 135.746C201.152 131.324 204.33 125.382 206.68 118.472ZM212.207 80.0541C211.931 71.0714 210.825 62.7798 208.753 55.3173C213.037 53.1062 217.044 50.2041 220.775 46.8874C229.205 56.4228 233.766 68.1694 234.595 80.0541H212.207Z" fill="#060606"/>
</svg>
